# xmcd
#
# Track frame offsets: 
#        150
#        11997
#        25179
#        36058
#        52437
#        62163
#        72416
#        84411
#        95584
#        109487
#        125167
#        138226
#
# Disc length: 1963 seconds
#
# Revision: 0
# Processed by: cddbd v1.5.2PL0 Copyright (c) Steve Scherf et al.
# Submitted via: ExactAudioCopyFreeDBPlugin 1.0
#
DISCID=b507a90c
DTITLE=Steve Farley - Rag and Country Piano
DYEAR=2012
DGENRE=Rag
TTITLE0=At The Hop
TTITLE1=The Bridge That Just Won't Burn
TTITLE2=Boogie Woogie
TTITLE3=The 12th Street Rag
TTITLE4=Alley Cat
TTITLE5=Mexican Pipline
TTITLE6=The Model T Rag
TTITLE7=Last Date
TTITLE8=Music, Music, Music
TTITLE9=El Paso Sunrise
TTITLE10=Spanish Cowboy
TTITLE11=Carefree
EXTD=
EXTT0=
EXTT1=
EXTT2=
EXTT3=
EXTT4=
EXTT5=
EXTT6=
EXTT7=
EXTT8=
EXTT9=
EXTT10=
EXTT11=
PLAYORDER=
